<?xml version="1.0" encoding="UTF-8"?>
<svg height="16px" viewBox="0 0 16 16" width="16px" xmlns="http://www.w3.org/2000/svg">
    <path d="m 2.667969 0 h 10.664062 c 0.371094 0 0.667969 0.359375 0.667969 0.800781 v 14.402344 c 0 0.441406 -0.296875 0.796875 -0.667969 0.796875 h -10.664062 c -0.371094 0 -0.667969 -0.355469 -0.667969 -0.796875 v -14.402344 c 0 -0.441406 0.296875 -0.800781 0.667969 -0.800781 z m 2 8 v 1.601562 h 1.332031 v -1.601562 z m 0 3.203125 v 1.597656 h 1.332031 v -1.597656 z m 2.664062 -3.203125 v 1.601562 h 1.335938 v -1.601562 z m 0 3.203125 v 1.597656 h 1.335938 v -1.597656 z m 2.667969 -3.203125 v 4.800781 h 1.332031 v -4.800781 z m -5.332031 -4.796875 v 3.199219 h 6.664062 v -3.199219 z m 0 0"/>
</svg>
