<?xml version="1.0" encoding="UTF-8"?>
<svg height="128px" viewBox="0 0 128 128" width="128px" xmlns="http://www.w3.org/2000/svg" xmlns:xlink="http://www.w3.org/1999/xlink">
    <filter id="a" height="100%" width="100%" x="0%" y="0%">
        <feColorMatrix color-interpolation-filters="sRGB" values="0 0 0 0 1 0 0 0 0 1 0 0 0 0 1 0 0 0 1 0"/>
    </filter>
    <linearGradient id="b" gradientTransform="matrix(0.230041 0 0 0.325001 -8.334708 262.129802)" gradientUnits="userSpaceOnUse" x1="88.595886" x2="536.595886" y1="-449.394012" y2="-449.394012">
        <stop offset="0" stop-color="#bbc0c2"/>
        <stop offset="0.05" stop-color="#d7d5ce"/>
        <stop offset="0.1" stop-color="#969899"/>
        <stop offset="0.5" stop-color="#989897"/>
        <stop offset="0.5" stop-color="#464f54"/>
        <stop offset="0.9" stop-color="#464f54"/>
        <stop offset="0.95" stop-color="#7c858a"/>
        <stop offset="1" stop-color="#546167"/>
    </linearGradient>
    <clipPath id="c">
        <rect height="128" width="128"/>
    </clipPath>
    <clipPath id="d">
        <rect height="128" width="128"/>
    </clipPath>
    <mask id="e">
        <g filter="url(#a)">
            <g clip-path="url(#d)" filter="url(#a)">
                <g clip-path="url(#c)">
                    <path d="m 20.242188 17.277344 h 86.664062 c 4.527344 0 8.199219 3.949218 8.199219 8.820312 v 81.15625 c 0 4.871094 -3.671875 8.824219 -8.199219 8.824219 h -86.664062 c -4.527344 0 -8.195313 -3.953125 -8.195313 -8.824219 v -81.15625 c 0 -4.871094 3.667969 -8.820312 8.195313 -8.820312 z m 0 0" fill="url(#b)"/>
                    <path d="m 20.242188 12.230469 h 86.660156 c 4.527344 0 8.199218 3.949219 8.199218 8.820312 v 81.195313 c 0 4.871094 -3.671874 8.820312 -8.199218 8.820312 h -86.660156 c -4.527344 0 -8.199219 -3.949218 -8.199219 -8.820312 v -81.195313 c 0 -4.871093 3.671875 -8.820312 8.199219 -8.820312 z m 0 0" fill="#c0bcbc"/>
                    <path d="m 20.351562 12.230469 h 86.441407 c 4.585937 0 8.308593 3.503906 8.308593 7.824219 v 41.574218 h -103.058593 v -41.574218 c 0 -4.320313 3.71875 -7.824219 8.308593 -7.824219 z m 0 0" fill="#546167"/>
                    <path d="m 39.730469 26.351562 c 0 -1.0625 -0.859375 -1.921874 -1.921875 -1.921874 c -1.066406 0 -1.925782 0.859374 -1.925782 1.921874 v 8.65625 h -8.652343 c -1.0625 0 -1.921875 0.859376 -1.921875 1.921876 s 0.859375 1.921874 1.921875 1.921874 h 8.652343 v 8.65625 c 0 1.0625 0.859376 1.921876 1.925782 1.921876 c 1.0625 0 1.921875 -0.859376 1.921875 -1.921876 v -8.65625 h 8.652343 c 1.0625 0 1.925782 -0.859374 1.925782 -1.921874 s -0.863282 -1.921876 -1.925782 -1.921876 h -8.652343 z m 0 0" fill="#ffffff"/>
                    <path d="m 63.570312 12.230469 h 43.222657 c 4.585937 0 8.308593 3.503906 8.308593 7.824219 v 41.574218 h -51.53125 z m 0 0" fill="#bbc0c2"/>
                    <path d="m 80.949219 37.863281 l 2.410156 2.410157 l 1.863281 -1.867188 l -2.410156 -2.40625 l 1.867188 -1.863281 l 2.410156 2.40625 l 1.859375 -1.863281 l -2.40625 -2.40625 l 1.863281 -1.867188 l 2.410156 2.410156 l 1.863282 -1.863281 l -2.410157 -2.410156 l 3.726563 -3.726563 c 0.515625 -0.515625 1.351562 -0.515625 1.863281 0 l 5.59375 5.589844 c 0.511719 0.515625 0.511719 1.351562 0 1.867188 l -16.773437 16.769531 c -0.515626 0.515625 -1.351563 0.515625 -1.867188 0 l -5.589844 -5.589844 c -0.515625 -0.515625 -0.515625 -1.347656 0 -1.863281 z m 11.183593 7.453125 l 5.589844 -5.589844 l 3.472656 3.472657 v 5.589843 h -5.589843 z m -11.183593 -11.183594 l -3.726563 -3.726562 c -0.515625 -0.515625 -0.515625 -1.347656 0 -1.863281 l 3.726563 -3.726563 c 0.515625 -0.515625 1.351562 -0.515625 1.863281 0 l 3.730469 3.726563 z m 0 0" fill="#ff4d00"/>
                    <path d="m 12.042969 61.664062 h 103.058593 v 41.578126 c 0 4.320312 -3.722656 7.824218 -8.308593 7.824218 h -86.441407 c -4.589843 0 -8.308593 -3.503906 -8.308593 -7.824218 z m 0 0" fill="#546167"/>
                    <path d="m 12.042969 61.664062 h 51.527343 v 49.402344 h -43.21875 c -4.589843 0 -8.308593 -3.503906 -8.308593 -7.824218 z m 0 0" fill="#bbc0c2"/>
                    <path d="m 29.472656 83.585938 c -2.300781 0 -4.164062 -2.175782 -4.164062 -4.859376 c 0 -2.683593 1.863281 -4.859374 4.164062 -4.859374 c 2.300782 0 4.167969 2.175781 4.167969 4.859374 c 0 2.683594 -1.867187 4.859376 -4.167969 4.859376 z m 0 -2.777344 c 0.988282 0 1.789063 -0.929688 1.789063 -2.082032 c 0 -1.152343 -0.800781 -2.082031 -1.789063 -2.082031 c -0.984375 0 -1.785156 0.929688 -1.785156 2.082031 c 0 1.152344 0.800781 2.082032 1.785156 2.082032 z m 20.835938 2.777344 h -2.382813 c 0 -3.066407 -2.132812 -5.554688 -4.761719 -5.554688 c -2.628906 0 -4.761718 2.488281 -4.761718 5.554688 v 6.945312 c 0 3.070312 2.132812 5.554688 4.761718 5.554688 c 2.628907 0 4.761719 -2.484376 4.761719 -5.554688 h 2.382813 c 0 4.601562 -3.199219 8.335938 -7.144532 8.335938 c -3.945312 0 -7.140624 -3.734376 -7.140624 -8.335938 v -6.945312 c 0 -4.601563 3.195312 -8.332032 7.140624 -8.332032 c 3.945313 0 7.144532 3.730469 7.144532 8.332032 z m 0 0" fill="#546167"/>
                    <path d="m 78.757812 78.070312 c -1.0625 0 -1.921874 1.097657 -1.921874 2.550782 s 0.859374 2.699218 1.921874 2.699218 h 21.03125 c 1.0625 0 2.046876 -1.175781 2.046876 -2.625 c 0 -1.457031 -0.859376 -2.625 -1.921876 -2.625 z m 0 11.34375 c -1.0625 0 -1.921874 1.164063 -1.921874 2.621094 c 0 1.449219 0.859374 2.625 1.921874 2.625 h 21.15625 c 1.0625 0 1.921876 -1.175781 1.921876 -2.625 c 0 -1.457031 -0.859376 -2.621094 -1.921876 -2.621094 z m 0 0" fill="#ffffff"/>
                </g>
            </g>
        </g>
    </mask>
    <mask id="f">
        <g filter="url(#a)">
            <rect fill-opacity="0.8" height="184.32" width="184.32" x="-28.16" y="-28.16"/>
        </g>
    </mask>
    <linearGradient id="g" gradientTransform="matrix(0 0.37 -0.98462 0 295.38501 -30.360001)" gradientUnits="userSpaceOnUse" x1="300" x2="428" y1="235" y2="235">
        <stop offset="0" stop-color="#f9f06b"/>
        <stop offset="1" stop-color="#f5c211"/>
    </linearGradient>
    <clipPath id="h">
        <rect height="128" width="128"/>
    </clipPath>
    <clipPath id="i">
        <rect height="128" width="128"/>
    </clipPath>
    <path d="m 20.242188 17.277344 h 86.664062 c 4.527344 0 8.199219 3.949218 8.199219 8.820312 v 81.15625 c 0 4.871094 -3.671875 8.824219 -8.199219 8.824219 h -86.664062 c -4.527344 0 -8.195313 -3.953125 -8.195313 -8.824219 v -81.15625 c 0 -4.871094 3.667969 -8.820312 8.195313 -8.820312 z m 0 0" fill="url(#b)"/>
    <path d="m 20.242188 12.230469 h 86.660156 c 4.527344 0 8.199218 3.949219 8.199218 8.820312 v 81.195313 c 0 4.871094 -3.671874 8.820312 -8.199218 8.820312 h -86.660156 c -4.527344 0 -8.199219 -3.949218 -8.199219 -8.820312 v -81.195313 c 0 -4.871093 3.671875 -8.820312 8.199219 -8.820312 z m 0 0" fill="#c0bcbc"/>
    <path d="m 20.351562 12.230469 h 86.441407 c 4.585937 0 8.308593 3.503906 8.308593 7.824219 v 41.574218 h -103.058593 v -41.574218 c 0 -4.320313 3.71875 -7.824219 8.308593 -7.824219 z m 0 0" fill="#546167"/>
    <path d="m 39.730469 26.351562 c 0 -1.0625 -0.859375 -1.921874 -1.921875 -1.921874 c -1.066406 0 -1.925782 0.859374 -1.925782 1.921874 v 8.65625 h -8.652343 c -1.0625 0 -1.921875 0.859376 -1.921875 1.921876 s 0.859375 1.921874 1.921875 1.921874 h 8.652343 v 8.65625 c 0 1.0625 0.859376 1.921876 1.925782 1.921876 c 1.0625 0 1.921875 -0.859376 1.921875 -1.921876 v -8.65625 h 8.652343 c 1.0625 0 1.925782 -0.859374 1.925782 -1.921874 s -0.863282 -1.921876 -1.925782 -1.921876 h -8.652343 z m 0 0" fill="#ffffff"/>
    <path d="m 63.570312 12.230469 h 43.222657 c 4.585937 0 8.308593 3.503906 8.308593 7.824219 v 41.574218 h -51.53125 z m 0 0" fill="#bbc0c2"/>
    <path d="m 80.949219 37.863281 l 2.410156 2.410157 l 1.863281 -1.867188 l -2.410156 -2.40625 l 1.867188 -1.863281 l 2.410156 2.40625 l 1.859375 -1.863281 l -2.40625 -2.40625 l 1.863281 -1.867188 l 2.410156 2.410156 l 1.863282 -1.863281 l -2.410157 -2.410156 l 3.726563 -3.726563 c 0.515625 -0.515625 1.351562 -0.515625 1.863281 0 l 5.59375 5.589844 c 0.511719 0.515625 0.511719 1.351562 0 1.867188 l -16.773437 16.769531 c -0.515626 0.515625 -1.351563 0.515625 -1.867188 0 l -5.589844 -5.589844 c -0.515625 -0.515625 -0.515625 -1.347656 0 -1.863281 z m 11.183593 7.453125 l 5.589844 -5.589844 l 3.472656 3.472657 v 5.589843 h -5.589843 z m -11.183593 -11.183594 l -3.726563 -3.726562 c -0.515625 -0.515625 -0.515625 -1.347656 0 -1.863281 l 3.726563 -3.726563 c 0.515625 -0.515625 1.351562 -0.515625 1.863281 0 l 3.730469 3.726563 z m 0 0" fill="#ff4d00"/>
    <path d="m 12.042969 61.664062 h 103.058593 v 41.578126 c 0 4.320312 -3.722656 7.824218 -8.308593 7.824218 h -86.441407 c -4.589843 0 -8.308593 -3.503906 -8.308593 -7.824218 z m 0 0" fill="#546167"/>
    <path d="m 12.042969 61.664062 h 51.527343 v 49.402344 h -43.21875 c -4.589843 0 -8.308593 -3.503906 -8.308593 -7.824218 z m 0 0" fill="#bbc0c2"/>
    <path d="m 29.472656 83.585938 c -2.300781 0 -4.164062 -2.175782 -4.164062 -4.859376 c 0 -2.683593 1.863281 -4.859374 4.164062 -4.859374 c 2.300782 0 4.167969 2.175781 4.167969 4.859374 c 0 2.683594 -1.867187 4.859376 -4.167969 4.859376 z m 0 -2.777344 c 0.988282 0 1.789063 -0.929688 1.789063 -2.082032 c 0 -1.152343 -0.800781 -2.082031 -1.789063 -2.082031 c -0.984375 0 -1.785156 0.929688 -1.785156 2.082031 c 0 1.152344 0.800781 2.082032 1.785156 2.082032 z m 20.835938 2.777344 h -2.382813 c 0 -3.066407 -2.132812 -5.554688 -4.761719 -5.554688 c -2.628906 0 -4.761718 2.488281 -4.761718 5.554688 v 6.945312 c 0 3.070312 2.132812 5.554688 4.761718 5.554688 c 2.628907 0 4.761719 -2.484376 4.761719 -5.554688 h 2.382813 c 0 4.601562 -3.199219 8.335938 -7.144532 8.335938 c -3.945312 0 -7.140624 -3.734376 -7.140624 -8.335938 v -6.945312 c 0 -4.601563 3.195312 -8.332032 7.140624 -8.332032 c 3.945313 0 7.144532 3.730469 7.144532 8.332032 z m 0 0" fill="#546167"/>
    <path d="m 78.757812 78.070312 c -1.0625 0 -1.921874 1.097657 -1.921874 2.550782 s 0.859374 2.699218 1.921874 2.699218 h 21.03125 c 1.0625 0 2.046876 -1.175781 2.046876 -2.625 c 0 -1.457031 -0.859376 -2.625 -1.921876 -2.625 z m 0 11.34375 c -1.0625 0 -1.921874 1.164063 -1.921874 2.621094 c 0 1.449219 0.859374 2.625 1.921874 2.625 h 21.15625 c 1.0625 0 1.921876 -1.175781 1.921876 -2.625 c 0 -1.457031 -0.859376 -2.621094 -1.921876 -2.621094 z m 0 0" fill="#ffffff"/>
    <g mask="url(#e)">
        <g clip-path="url(#i)">
            <g mask="url(#f)">
                <g clip-path="url(#h)">
                    <path d="m 128 80.640625 v 47.359375 h -128 v -47.359375 z m 0 0" fill="url(#g)"/>
                    <path d="m 13.308594 80.640625 l 47.355468 47.359375 h 21.214844 l -47.359375 -47.359375 z m 42.421875 0 l 47.363281 47.359375 h 21.214844 l -47.363282 -47.359375 z m 42.429687 0 l 29.839844 29.839844 v -21.210938 l -8.628906 -8.628906 z m -98.160156 7.90625 v 21.214844 l 18.238281 18.238281 h 21.214844 z m 0 0"/>
                </g>
            </g>
        </g>
    </g>
</svg>
