<?xml version="1.0" encoding="UTF-8"?>
<svg height="128px" viewBox="0 0 128 128" width="128px" xmlns="http://www.w3.org/2000/svg" xmlns:xlink="http://www.w3.org/1999/xlink">
    <linearGradient id="a" gradientTransform="matrix(0.230041 0 0 0.338348 -7.920734 267.651901)" gradientUnits="userSpaceOnUse" x1="88.595886" x2="536.595886" y1="-449.394012" y2="-449.394012">
        <stop offset="0" stop-color="#bbc0c2"/>
        <stop offset="0.05" stop-color="#d7d5ce"/>
        <stop offset="0.1" stop-color="#969899"/>
        <stop offset="0.5" stop-color="#989897"/>
        <stop offset="0.5" stop-color="#464f54"/>
        <stop offset="0.9" stop-color="#464f54"/>
        <stop offset="0.95" stop-color="#7c858a"/>
        <stop offset="1" stop-color="#546167"/>
    </linearGradient>
    <path d="m 20.460938 12.742188 h 87.054687 c 4.417969 0 8 3.582031 8 8 v 86.859374 c 0 4.417969 -3.582031 8 -8 8 h -87.054687 c -4.421876 0 -8 -3.582031 -8 -8 v -86.859374 c 0 -4.417969 3.578124 -8 8 -8 z m 0 0" fill="url(#a)"/>
    <path d="m 107.402344 12.375 h -86.660156 c -4.527344 0 -8.199219 3.953125 -8.199219 8.824219 v 81.191406 c 0 4.871094 3.671875 8.824219 8.199219 8.824219 h 86.660156 c 4.527344 0 8.199218 -3.953125 8.199218 -8.824219 v -81.191406 c 0 -4.871094 -3.671874 -8.824219 -8.199218 -8.824219 z m 0 0" fill="#c0bcbc"/>
    <path d="m 20.851562 12.375 h 86.441407 c 2.203125 0 4.316406 0.828125 5.875 2.292969 c 1.558593 1.46875 2.433593 3.457031 2.433593 5.535156 v 41.574219 h -103.058593 v -41.574219 c 0 -2.078125 0.875 -4.066406 2.433593 -5.535156 c 1.558594 -1.464844 3.671876 -2.292969 5.875 -2.292969 z m 0 0" fill="#546167"/>
    <path d="m 41.402344 25.398437 c 0 -1.066406 -1.128906 -2 -2.523438 -2.03125 c -1.144531 -0.042968 -2.496093 0.964844 -2.496093 2.03125 v 8.652344 h -8.652344 c -1.0625 0 -2.136719 1.488281 -2.136719 2.550781 s 1.074219 2.398438 2.136719 2.398438 h 8.652344 v 8.652344 c 0 1.066406 1.222656 2.148437 2.480468 2.164062 c 0.871094 -0.015625 2.539063 -1.097656 2.539063 -2.164062 v -8.652344 h 8.652344 c 1.0625 0 2.160156 -1.375 2.160156 -2.4375 c 0 -1.066406 -1.097656 -2.511719 -2.160156 -2.511719 h -8.652344 z m 0 0" fill="#ffffff" stroke="#ffffff" stroke-width="3"/>
    <path d="m 64.070312 12.375 h 43.222657 c 2.203125 0 4.316406 0.828125 5.875 2.292969 c 1.558593 1.46875 2.433593 3.457031 2.433593 5.535156 v 41.574219 h -51.53125 z m 0 0" fill="#bbc0c2"/>
    <path d="m 81.449219 38.007812 l 2.410156 2.410157 l 1.863281 -1.863282 l -2.410156 -2.410156 l 1.867188 -1.863281 l 2.410156 2.410156 l 1.859375 -1.863281 l -2.40625 -2.410156 l 1.863281 -1.863282 l 2.410156 2.410157 l 1.863282 -1.863282 l -2.410157 -2.410156 l 3.726563 -3.726562 c 0.515625 -0.515625 1.351562 -0.515625 1.863281 0 l 5.59375 5.589843 c 0.511719 0.515625 0.511719 1.347657 0 1.863282 l -16.773437 16.773437 c -0.515625 0.515625 -1.351563 0.515625 -1.867188 0 l -5.589844 -5.589844 c -0.515625 -0.515625 -0.515625 -1.351562 0 -1.863281 z m 11.183594 7.457032 l 5.589843 -5.59375 l 3.472657 3.476562 v 5.589844 h -5.589844 z m -11.183594 -11.183594 l -3.726563 -3.726563 c -0.515625 -0.515625 -0.515625 -1.351562 0 -1.863281 l 3.726563 -3.726562 c 0.515625 -0.515625 1.351562 -0.515625 1.863281 0 l 3.730469 3.726562 z m 0 0" fill="#546167" stroke="#546167" stroke-width="2"/>
    <path d="m 12.542969 61.8125 h 103.058593 v 41.574219 c 0 2.078125 -0.875 4.066406 -2.433593 5.535156 c -1.558594 1.46875 -3.671875 2.292969 -5.875 2.292969 h -86.441407 c -2.203124 0 -4.316406 -0.824219 -5.875 -2.292969 c -1.558593 -1.46875 -2.433593 -3.457031 -2.433593 -5.535156 z m 0 0" fill="#546167"/>
    <path d="m 12.542969 61.8125 h 51.527343 v 49.402344 h -43.21875 c -2.203124 0 -4.316406 -0.824219 -5.875 -2.292969 c -1.558593 -1.46875 -2.433593 -3.457031 -2.433593 -5.535156 z m 0 0" fill="#bbc0c2"/>
    <path d="m 29.972656 83.734375 c -2.300781 0 -4.164062 -2.175781 -4.164062 -4.859375 c 0 -2.6875 1.863281 -4.863281 4.164062 -4.863281 c 2.304688 0 4.167969 2.175781 4.167969 4.863281 c 0 2.683594 -1.863281 4.859375 -4.167969 4.859375 z m 0 -2.777344 c 0.988282 0 1.789063 -0.933594 1.789063 -2.082031 c 0 -1.152344 -0.800781 -2.085938 -1.789063 -2.085938 c -0.984375 0 -1.785156 0.933594 -1.785156 2.085938 c 0 1.148437 0.800781 2.082031 1.785156 2.082031 z m 20.835938 2.777344 h -2.382813 c 0 -3.066406 -2.128906 -5.554688 -4.761718 -5.554688 c -2.628907 0 -4.761719 2.488282 -4.761719 5.554688 v 6.945312 c 0 3.066407 2.132812 5.554688 4.761719 5.554688 c 2.632812 0 4.761718 -2.488281 4.761718 -5.554688 h 2.382813 c 0 4.601563 -3.199219 8.332032 -7.144531 8.332032 c -3.945313 0 -7.140625 -3.730469 -7.140625 -8.332032 v -6.945312 c 0 -4.601563 3.195312 -8.332031 7.140625 -8.332031 c 3.945312 0 7.144531 3.730468 7.144531 8.332031 z m 0 0" fill="#546167" stroke="#546167" stroke-width="2"/>
    <path d="m 79.257813 78.21875 c -1.0625 0 -1.921875 1.097656 -1.921875 2.550781 c 0 1.449219 0.859375 2.699219 1.921875 2.699219 h 21.03125 c 1.0625 0 2.046875 -1.175781 2.046875 -2.625 c 0 -1.457031 -0.859375 -2.625 -1.921875 -2.625 z m 0 11.339844 c -1.0625 0 -1.921875 1.167968 -1.921875 2.625 c 0 1.449218 0.859375 2.625 1.921875 2.625 h 21.15625 c 1.0625 0 1.921875 -1.175782 1.921875 -2.625 c 0 -1.457032 -0.859375 -2.625 -1.921875 -2.625 z m 0 0" fill="#ffffff" stroke="#ffffff" stroke-width="3"/>
</svg>
